HIERARCHY
ROOT Hips
{
	OFFSET	0.000000	0.000000	0.000000
	CHANNELS 6 Xposition Yposition Zposition Zrotation Xrotation Yrotation
	JOINT LeftHip
	{
		OFFSET	4.740440	-3.195970	-0.322709
		CHANNELS 3 Zrotation Xrotation Yrotation
		JOINT LeftKnee
		{
			OFFSET	-1.605680	-15.592300	1.005510
			CHANNELS 3 Zrotation Xrotation Yrotation
			JOINT LeftAnkle
			{
				OFFSET	-0.632401	-16.421000	-1.413730
				CHANNELS 3 Zrotation Xrotation Yrotation
				End Site
				{
					OFFSET	0.008423	-2.933000	-1.776750
				}
			}
		}
	}
	JOINT RightHip
	{
		OFFSET	-4.740440	-3.195970	-0.322709
		CHANNELS 3 Zrotation Xrotation Yrotation
		JOINT RightKnee
		{
			OFFSET	1.605680	-15.592300	1.005510
			CHANNELS 3 Zrotation Xrotation Yrotation
			JOINT RightAnkle
			{
				OFFSET	0.632401	-16.421000	-1.413730
				CHANNELS 3 Zrotation Xrotation Yrotation
				End Site
				{
					OFFSET	-0.008423	-2.933000	-1.776750
				}
			}
		}
	}
	JOINT Chest
	{
		OFFSET	0.000000	3.468200	0.078401
		CHANNELS 3 Zrotation Xrotation Yrotation
		JOINT LeftCollar
		{
			OFFSET	3.857650	15.070700	-0.011583
			CHANNELS 3 Zrotation Xrotation Yrotation
			JOINT LeftShoulder
			{
				OFFSET	3.979720	-1.940530	-0.165223
				CHANNELS 3 Zrotation Xrotation Yrotation
				JOINT LeftElbow
				{
					OFFSET	0.615844	-10.986600	-0.673886
					CHANNELS 3 Zrotation Xrotation Yrotation
					JOINT LeftWrist
					{
						OFFSET	0.826843	-10.854500	1.034220
						CHANNELS 3 Zrotation Xrotation Yrotation
						End Site
						{
							OFFSET	-1.679080	-8.456540	0.936217
						}
					}
				}
			}
		}
		JOINT RightCollar
		{
			OFFSET	-3.857650	15.070700	-0.011583
			CHANNELS 3 Zrotation Xrotation Yrotation
			JOINT RightShoulder
			{
				OFFSET	-3.979720	-1.940530	-0.165223
				CHANNELS 3 Zrotation Xrotation Yrotation
				JOINT RightElbow
				{
					OFFSET	-0.615845	-10.986600	-0.673886
					CHANNELS 3 Zrotation Xrotation Yrotation
					JOINT RightWrist
					{
						OFFSET	-0.826843	-10.854500	1.034220
						CHANNELS 3 Zrotation Xrotation Yrotation
						End Site
						{
							OFFSET	1.679080	-8.456540	0.936217
						}
					}
				}
			}
		}
		JOINT Neck
		{
			OFFSET	0.000000	15.101400	0.055730
			CHANNELS 3 Zrotation Xrotation Yrotation
			JOINT Head
			{
				OFFSET	0.000000	4.185120	1.488260
				CHANNELS 3 Zrotation Xrotation Yrotation
				End Site
				{
					OFFSET	0.000000	7.773420	-0.106016
				}
			}
		}
	}
}
MOTION
Frames:     19
Frame Time: 0.016667
-2.523602	37.512138	-2.909686	5.540188	-11.800809	-4.281709	-0.159414	10.022288	3.698715	-3.098747	6.204916	8.394310	-2.040353	-3.815131	-0.667433	-19.468876	-3.235125	-3.992824	-0.610735	18.699909	0.124921	12.556578	-3.243451	6.276357	-7.620724	12.332042	0.967702	-3.941329	4.545279	5.273013	3.476359	-1.732032	5.765622	-0.647585	-8.814437	-6.008039	11.252275	5.316877	-22.976582	0.221205	2.089848	4.823649	-3.508307	-4.600655	3.514681	-1.783740	-7.518254	8.807696	-12.907007	-1.893387	12.095770	0.020178	8.986915	1.693667	-0.571963	-2.511170	-4.612850	
-2.521533	37.510788	-2.910487	5.550402	-11.802155	-4.262557	-0.155043	10.016049	3.764586	-3.118446	6.228723	8.389138	-2.029446	-3.826458	-0.746069	-19.479151	-3.259655	-4.015229	-0.615938	18.754978	0.162303	12.555180	-3.273899	6.252232	-7.668391	12.288543	1.157457	-3.933389	4.573004	5.303022	3.531340	-1.701548	5.759677	-0.753628	-9.053188	-6.067608	11.263499	5.261168	-22.922300	0.202790	2.151632	4.822072	-3.457885	-4.627781	3.579521	-1.830150	-7.507030	8.824695	-12.822679	-1.825212	12.204019	0.062513	9.042954	1.682217	-0.624690	-2.536649	-4.668664	
-2.524063	37.510738	-2.905548	5.554939	-11.802749	-4.254018	-0.150495	10.041382	3.863637	-3.121437	6.213807	8.304351	-2.026022	-3.830024	-0.770796	-19.483803	-3.266948	-4.024432	-0.616877	18.794764	0.196176	12.552967	-3.309861	6.227655	-7.703170	12.239765	1.328060	-3.899766	4.622557	5.200266	3.556916	-1.730307	5.763221	-0.792465	-9.119431	-6.068892	11.257199	5.239213	-22.903847	0.192226	2.176819	4.724103	-3.412290	-4.610410	3.597398	-1.845548	-7.502318	8.828084	-12.795968	-1.802032	12.233509	0.123522	9.098403	1.572378	-0.657918	-2.548440	-4.682708	
-2.527153	37.509209	-2.903305	5.582535	-11.803389	-4.142769	-0.143151	10.022607	3.857418	-3.134857	6.244852	8.247165	-2.019746	-3.836565	-0.816025	-19.515940	-3.259734	-4.130177	-0.620047	18.854288	0.234169	12.550204	-3.348979	6.203367	-7.734488	12.224599	1.355680	-3.907366	4.624723	5.294025	3.648617	-1.843269	5.761256	-0.926659	-9.363448	-6.077760	11.208567	5.138777	-22.871067	0.153329	2.232288	4.830505	-3.361526	-4.639684	3.557904	-1.884234	-7.500364	8.912102	-12.723993	-1.731064	12.277429	0.175015	9.144646	1.643154	-0.751350	-2.582175	-4.745976	
-2.531923	37.508499	-2.896663	5.601539	-11.805464	-4.100583	-0.148126	10.046109	3.916324	-3.133008	6.228662	8.149289	-2.019295	-3.837086	-0.818763	-19.536545	-3.253298	-4.167561	-0.613150	18.906445	0.239248	12.542606	-3.394325	6.207274	-7.758437	12.214182	1.390358	-3.907049	4.643467	5.283657	3.678594	-1.881306	5.753039	-0.982667	-9.488830	-6.074564	11.202430	5.129384	-22.838121	0.148259	2.284799	4.894986	-3.354115	-4.674438	3.496130	-1.904140	-7.502992	9.039481	-12.699948	-1.678580	12.168363	0.209467	9.135441	1.635673	-0.785570	-2.560876	-4.772077	
-2.537130	37.504532	-2.884032	5.674579	-11.814304	-3.956565	-0.194633	10.059832	3.824409	-3.131791	6.221489	8.108999	-2.019295	-3.837086	-0.818763	-19.616684	-3.208518	-4.283503	-0.604679	18.950190	0.249352	12.536663	-3.438524	6.199842	-7.843521	12.188677	1.475039	-3.881259	4.667575	5.265907	3.736881	-1.933630	5.715939	-1.195927	-9.930529	-6.046253	11.195817	5.020159	-22.789005	0.161035	2.341129	4.799847	-3.326472	-4.692045	3.590617	-1.938396	-7.493383	8.985001	-12.643781	-1.639729	12.271244	0.288507	9.193056	1.591124	-0.877127	-2.588355	-4.800416	
-2.539346	37.503170	-2.879010	5.700657	-11.817373	-3.904637	-0.210552	10.067391	3.799790	-3.131128	6.216781	8.085617	-2.019295	-3.837086	-0.818763	-19.646624	-3.192999	-4.320750	-0.599959	18.971859	0.261575	12.534931	-3.462305	6.185436	-7.894761	12.161776	1.599768	-3.840050	4.696900	5.166216	3.747004	-1.926440	5.695309	-1.268052	-10.099843	-6.051434	11.187332	4.958838	-22.768717	0.123807	2.339265	4.739447	-3.251767	-4.659868	3.544215	-1.952456	-7.496318	9.067690	-12.622994	-1.604053	12.212854	0.352558	9.231750	1.468330	-0.908383	-2.599391	-4.797190	
-2.540460	37.498810	-2.864823	5.778036	-11.826171	-3.749574	-0.260680	10.077782	3.681084	-3.139503	6.217947	8.103623	-2.013768	-3.842800	-0.859418	-19.740917	-3.150801	-4.413578	-0.568389	19.025703	0.222828	12.527233	-3.506483	6.191341	-7.963643	12.163527	1.565769	-3.785890	4.673478	5.132605	3.748003	-1.942331	5.686915	-1.526958	-10.592586	-6.042957	11.183029	4.770798	-22.693926	0.137621	2.362935	4.673445	-3.240134	-4.669740	3.683467	-1.982510	-7.488557	9.008805	-12.570595	-1.574990	12.326363	0.405315	9.225554	1.493422	-0.998868	-2.586033	-4.803008	
-2.539067	37.498543	-2.863739	5.781645	-11.826460	-3.742112	-0.263029	10.077871	3.674257	-3.143581	6.220580	8.121680	-2.011317	-3.845357	-0.877174	-19.740986	-3.155646	-4.376458	-0.547916	19.085684	0.178564	12.518101	-3.558904	6.198251	-7.985277	12.148247	1.646721	-3.750822	4.677105	5.071068	3.722774	-1.960183	5.694197	-1.596153	-10.765145	-6.110359	11.095002	4.443178	-22.578728	0.129700	2.366147	4.630657	-3.210860	-4.660261	3.702502	-1.993345	-7.486702	9.001996	-12.555640	-1.561039	12.333611	0.449664	9.210237	1.452254	-1.029409	-2.558402	-4.816329	
-2.536695	37.497177	-2.853312	5.816569	-11.828183	-3.628435	-0.278320	10.077896	3.566069	-3.154326	6.227496	8.169334	-2.004868	-3.852083	-0.924033	-19.787830	-3.142361	-4.337007	-0.490612	19.153658	0.063321	12.513365	-3.609212	6.174320	-8.007195	12.157532	1.576784	-3.719578	4.648160	5.078937	3.637396	-1.992539	5.679236	-1.813042	-11.336544	-6.245725	11.148140	4.533354	-22.567493	0.143206	2.326286	4.642477	-3.214674	-4.654682	3.748461	-1.997234	-7.486076	9.048493	-12.511911	-1.522567	12.368969	0.476475	9.178336	1.463311	-1.081805	-2.529487	-4.794180	
-2.535613	37.497787	-2.849452	5.817284	-11.826231	-3.586715	-0.271506	10.076104	3.523834	-3.157373	6.229460	8.182839	-2.003041	-3.853996	-0.937308	-19.795607	-3.136237	-4.340853	-0.479697	19.161030	0.065038	12.516888	-3.618069	6.137256	-7.984469	12.124378	1.588251	-3.720773	4.674272	5.042288	3.609260	-1.984441	5.660212	-1.895605	-11.539737	-6.294943	10.985417	3.934892	-22.474279	0.148511	2.323551	4.617304	-3.230906	-4.631020	3.750915	-1.987019	-7.523650	9.084118	-12.504065	-1.455326	12.365395	0.472697	9.215202	1.405370	-1.095586	-2.532415	-4.770238	
-2.535717	37.495144	-2.839821	5.862844	-11.831093	-3.494962	-0.299256	10.088652	3.477646	-3.164490	6.227042	8.181157	-1.999431	-3.860836	-0.977323	-19.857748	-3.124911	-4.315448	-0.435835	19.180216	-0.022915	12.519036	-3.621217	6.117632	-7.980914	12.105817	1.505943	-3.735686	4.679552	5.070827	3.540026	-2.013749	5.626840	-2.166568	-12.098580	-6.447905	11.079967	4.044136	-22.475189	0.134260	2.340865	4.616093	-3.248362	-4.662416	3.773978	-1.969306	-7.531352	9.083153	-12.485785	-1.444556	12.414082	0.463236	9.165856	1.404824	-1.151369	-2.457945	-4.710946	
-2.535988	37.494957	-2.838776	5.864727	-11.831243	-3.491051	-0.299229	10.094106	3.494233	-3.164182	6.223150	8.161936	-2.000839	-3.863088	-0.983283	-19.865688	-3.130105	-4.289144	-0.418828	19.202309	-0.043293	12.517394	-3.638409	6.109489	-7.980084	12.104382	1.502314	-3.737503	4.681580	5.070618	3.537651	-2.017204	5.627004	-2.267492	-12.290788	-6.496581	11.006145	3.767304	-22.501141	0.162821	2.310932	4.628543	-3.280825	-4.676034	3.762128	-1.942350	-7.552170	9.083000	-12.478036	-1.450841	12.439443	0.479785	9.082393	1.412110	-1.178782	-2.374226	-4.700518	
-2.535927	37.494499	-2.837574	5.864727	-11.831243	-3.491051	-0.296404	10.106400	3.540161	-3.162588	6.213629	8.114638	-2.007406	-3.870906	-1.000937	-19.872723	-3.135448	-4.264092	-0.400438	19.242903	-0.045597	12.513535	-3.677688	6.091997	-7.980084	12.104382	1.502314	-3.737503	4.681580	5.070618	3.534392	-2.022054	5.537310	-2.716529	-12.954591	-6.617864	11.251643	4.065053	-22.577374	0.187526	2.276366	4.648484	-3.306242	-4.664810	3.743407	-1.916250	-7.603625	9.081750	-12.479953	-1.409100	12.462353	0.492367	9.024526	1.417280	-1.231576	-2.359245	-4.733546	
-2.535423	37.494217	-2.837471	5.864727	-11.831243	-3.491051	-0.295686	10.109533	3.551879	-3.162181	6.211205	8.102568	-2.010800	-3.874945	-1.010061	-19.872723	-3.135448	-4.264092	-0.398913	19.259924	-0.034045	12.511585	-3.696918	6.083898	-7.980084	12.104382	1.502314	-3.737503	4.681580	5.070618	3.533215	-2.023854	5.503694	-2.905164	-13.227591	-6.773396	11.275469	3.987578	-22.537346	0.214492	2.246579	4.661349	-3.332965	-4.648849	3.731360	-1.903885	-7.621614	9.081570	-12.477858	-1.405543	12.472624	0.503105	8.962316	1.386546	-1.254170	-2.313199	-4.714089	
-2.534881	37.493927	-2.837385	5.864727	-11.831243	-3.491051	-0.295028	10.112593	3.563335	-3.161745	6.208832	8.090780	-2.014246	-3.879040	-1.019329	-19.872723	-3.135448	-4.264092	-0.394561	19.300583	-0.011170	12.506522	-3.741880	6.068938	-7.988945	12.100068	1.534830	-3.718776	4.672702	5.058196	3.522433	-2.021711	5.333681	-3.038563	-13.463099	-6.800500	11.300869	3.936550	-22.491102	0.251696	2.222012	4.642042	-3.360258	-4.638044	3.720773	-1.887388	-7.648346	9.080839	-12.510708	-1.478033	12.499607	0.524056	8.914882	1.309790	-1.314208	-2.315570	-4.689821	
-2.534343	37.493233	-2.836612	5.872446	-11.832165	-3.476633	-0.300335	10.113122	3.550300	-3.161745	6.208832	8.090780	-2.013153	-3.881990	-1.029957	-19.874819	-3.124557	-4.256499	-0.391289	19.305616	-0.031280	12.504544	-3.753256	6.070446	-7.993830	12.102310	1.521897	-3.718776	4.672702	5.058196	3.521221	-2.028381	5.268540	-3.157519	-13.645804	-6.929941	11.311438	3.900943	-22.440243	0.269614	2.211699	4.640162	-3.378959	-4.645194	3.702081	-1.872298	-7.662721	9.101008	-12.514057	-1.506003	12.459982	0.546119	8.893982	1.278011	-1.358033	-2.312091	-4.655218	
-2.534527	37.492302	-2.834650	5.886807	-11.833819	-3.449188	-0.310098	10.114056	3.525419	-3.161745	6.208832	8.090780	-2.009933	-3.883114	-1.037090	-19.882505	-3.117548	-4.260360	-0.390655	19.334330	-0.029504	12.501685	-3.784472	6.054760	-8.002783	12.106513	1.497199	-3.704126	4.663191	5.043684	3.505625	-2.043705	5.059498	-3.219188	-13.795371	-6.877392	11.319489	3.880096	-22.426998	0.334076	2.207572	4.598307	-3.444329	-4.681074	3.643902	-1.836687	-7.648389	9.090155	-12.541059	-1.515733	12.482237	0.576958	8.825844	1.195163	-1.421618	-2.306520	-4.572275	
-2.532683	37.491749	-2.832424	5.886807	-11.833819	-3.449188	-0.310098	10.114056	3.525419	-3.165371	6.217556	8.089121	-2.000429	-3.893836	-1.047996	-19.882505	-3.117548	-4.260360	-0.390597	19.335604	-0.028396	12.501575	-3.785961	6.053932	-8.002783	12.106513	1.497199	-3.697502	4.662389	5.028275	3.507832	-2.080890	5.005761	-3.303537	-13.890007	-6.988165	11.354029	3.962863	-22.356474	0.358973	2.218994	4.568558	-3.468537	-4.696252	3.636999	-1.820521	-7.666315	9.062358	-12.554847	-1.555582	12.471977	0.598194	8.786064	1.150677	-1.451647	-2.290615	-4.525073	
